<?xml version="1.0" encoding="UTF-8"?>
<svg version="1.1" viewBox="0 0 2048 1545" width="1280" height="1280" xmlns="http://www.w3.org/2000/svg">
<path transform="translate(430)" d="m0 0h1618l-1 8-5 12-20 60-14 43-17 53-39 119-18 57-16 48-14 43-16 50-16 49-21 64-16 51-20 60-16 50-17 53-12 36-21 64-13 41-20 61-18 55-16 50-13 40-12 36-23 72-27 82-16 50-39 119-6 19h-1546v-9l6-17 15-52 13-47 20-72 18-65 16-57 23-83 22-79 17-61 58-208 16-58 15-54 16-57 22-79 21-75 70-252 21-75 19-68 15-54z" fill="#B9A708"/>
</svg>
