<?xml version="1.0" encoding="UTF-8"?>
<svg version="1.1" viewBox="0 0 2048 1635" width="1280" height="1280" xmlns="http://www.w3.org/2000/svg">
<path transform="translate(1023)" d="m0 0h3l11 21 11 17 36 57 13 21 12 19 11 18 15 23 12 20 12 19 13 21 24 38 10 16 13 21 12 19 15 24 12 19 15 24 13 21 12 19 30 48 12 19 30 48 24 38 16 26 24 38 13 21 14 22 16 26 24 38 13 21 12 19 30 48 12 19 30 48 12 19 30 48 12 19 30 48 12 19 15 24 13 21 12 19 15 24 12 19 15 24 13 21 12 19 15 24 12 19 16 26 14 22 12 19 14 23 11 17 15 24 13 21 15 24 14 22 13 21 12 19 13 21 12 19 15 24 12 19 10 16 9 10v5h-2047l1-5 9-14 10-16 8-13 12-19 11-17 13-21 11-18 10-16 11-17 10-16 13-21 10-16 12-19 25-40 7-11 13-21 15-24 13-21 14-22 15-24 13-21 7-11 12-19 15-24 16-26 11-17 11-18 10-16 14-22 13-21 11-17 9-15 7-11 15-24 9-14 14-23 11-17 16-26 9-14 11-18 11-17 13-21 12-19 11-18 12-19 11-17 9-15 10-16 9-14 10-16 8-13 11-18 10-15 14-23 11-17 8-14 10-15 13-21 12-19 13-21 24-38 16-26 11-17 15-24 16-26 14-22 13-21 11-17 14-23 11-17 11-18 10-16 12-19 10-16 12-19 7-11 11-18 11-17 11-18 10-15 9-16 12-18 11-18 9-14 13-21 12-19z" fill="#FEFE63"/>
</svg>
